<svg xmlns="http://www.w3.org/2000/svg" width="186" height="41" viewBox="0 0 186 41">
  <g fill="#0A0B09" fill-rule="evenodd" transform="translate(10 5)">
    <path d="M25.9960365,20.9835366 C26.4418841,22.6404878 26.4826159,24.0142683 26.5229807,24.0142683 L26.6040773,24.0142683 C26.6040773,24.0142683 26.7255386,22.599878 27.0902897,20.9835366 L31.8320536,1.14512195 L37.2222232,1.14512195 L29.8057403,29.832439 L23.7671652,29.832439 L19.3497876,12.8626829 C18.8635751,11.0041463 18.6202854,9.105 18.6202854,9.105 L18.5391888,9.105 C18.5391888,9.105 18.2958991,11.0041463 17.8096867,12.8626829 L13.392309,29.832439 L7.35410086,29.832439 L0.140542918,1.14512195 L5.53034549,1.14512195 L10.0695515,20.9835366 C10.4343026,22.599878 10.5557639,24.0142683 10.5557639,24.0142683 L10.6368605,24.0142683 C10.6775923,24.0142683 10.7179571,22.6404878 11.1638047,20.9835366 L16.3510494,1.14512195 L20.8898884,1.14512195 L25.9960365,20.9835366"/>
    <polyline points="45.933 1.145 63.156 1.145 63.156 5.63 51.161 5.63 51.161 13.145 60.846 13.145 60.846 17.63 51.161 17.63 51.161 25.347 63.804 25.347 63.804 29.832 45.933 29.832 45.933 1.145"/>
    <polyline points="73.286 1.145 78.514 1.145 78.514 25.347 90.955 25.347 90.955 29.832 73.286 29.832 73.286 1.145"/>
    <polyline points="99.18 1.145 104.409 1.145 104.409 25.347 116.85 25.347 116.85 29.832 99.18 29.832 99.18 1.145"/>
    <path d="M164.602912 2.02719512C164.602912 1.80219512 164.419803 1.61963415 164.194127 1.61963415L163.497283 1.61963415 163.497283 1.09463415 166.320985 1.09463415 166.320985 1.61963415 165.624142 1.61963415C165.398099 1.61963415 165.214989 1.80219512 165.214989 2.02719512L165.214989 4.45390244 164.602912 4.45390244 164.602912 2.02719512M167.396891 1.09463415L167.397624 1.09463415C167.564955 1.09463415 167.715773 1.19670732 167.777421 1.35182927L168.334455 2.7552439C168.410414 2.95390244 168.505455 3.24731707 168.505455 3.24731707L168.514996 3.24731707C168.514996 3.24731707 168.605266 2.95390244 168.681225 2.7552439L169.23826 1.35182927C169.299908 1.19670732 169.450725 1.09463415 169.618056 1.09463415 169.831255 1.09463415 170.008861 1.25743902 170.02574 1.46926829L170.266094 4.45390244 169.658788 4.45390244 169.51641 2.57560976C169.502099 2.35317073 169.511639 2.055 169.511639 2.055L169.502099 2.055C169.502099 2.055 169.402288 2.38134146 169.321558 2.57560976L168.775532 3.87658537 168.239781 3.87658537 167.698893 2.57560976C167.617796 2.38134146 167.513582 2.0502439 167.513582 2.0502439L167.504041 2.0502439C167.504041 2.0502439 167.513582 2.35317073 167.49927 2.57560976L167.356893 4.45390244 166.744815 4.45390244 166.989206 1.46890244C167.00682 1.25743902 167.184058 1.09463415 167.396891 1.09463415M140.796116 29.679878C139.890109 25.2764634 140.788043 21.3819512 143.973193 18.1042683 145.535311 16.4967073 147.37191 15.2410976 149.208142 13.9810976 150.250288 13.2658537 151.30124 12.5612195 152.180092 11.6378049 153.350305 10.407439 153.245723 9.02121951 152.522459 8.05463415 151.773142 7.05365854 150.685127 6.76829268 149.492163 6.90256098 148.089303 7.0602439 147.090824 7.89841463 146.256006 8.96268293 146.014185 9.27182927 145.807223 9.60804878 145.574208 9.94646341 143.822742 8.77756098 142.066506 7.605 140.296326 6.42329268 140.712451 5.53719512 141.249303 4.75865854 141.877159 4.04304878 144.008788 1.61231707 146.702221.332195122 149.931406.183292683 152.455674.0669512195 154.829124.580243902 156.939103 2.01878049 159.077704 3.47634146 160.221496 5.5295122 160.462951 8.09414634 160.769356 11.3487805 159.587034 14.0132927 157.252114 16.235122 155.70871 17.7032927 153.906605 18.8103659 152.128719 19.9543902 151.16767 20.5730488 150.191575 21.1745122 149.392352 22.0068293 148.974026 22.442561 148.633127 22.9229268 148.582854 23.5865854 152.69933 23.5865854 156.796725 23.5865854 160.920908 23.5865854 160.920908 25.6284146 160.920908 27.6420732 160.920908 29.679878 154.226221 29.679878 147.524929 29.679878 140.796116 29.679878"/>
    <path d="M120.21777,16.5281707 C120.21777,14.9330488 120.21777,13.389878 120.21777,11.7943902 C120.330425,11.7943902 120.436107,11.7943902 120.54179,11.7943902 C122.638925,11.7943902 127.506921,11.7786585 127.542515,11.8785366 C128.385039,14.2123171 129.334345,16.8578049 130.174667,19.1923171 C130.782341,20.8814634 131.390749,22.569878 131.999524,24.2586585 C132.02888,24.339878 132.066309,24.4181707 132.131627,24.5718293 C134.694792,18.9321951 137.229335,13.3573171 139.777088,7.75134146 C141.452594,8.89207317 143.096176,10.0112195 144.754803,11.1402439 C144.318496,12.0581707 143.89173,12.9596341 143.463129,13.86 C140.978124,19.08 138.490918,24.2996341 136.011418,29.5221951 C135.907571,29.7413415 135.796384,29.8339024 135.53915,29.832439 C133.290097,29.8207317 131.040676,29.8221951 128.791622,29.8313415 C128.560809,29.8320732 128.463567,29.7658537 128.387607,29.544878 C126.922365,25.2921951 125.44538,21.0442683 123.980137,16.7915854 C123.906013,16.5764634 123.798129,16.5219512 123.586764,16.5237805 C122.59379,16.5329268 121.600815,16.5281707 120.607841,16.5281707 C120.488215,16.5281707 120.368221,16.5281707 120.21777,16.5281707"/>
  </g>
</svg>
