<svg xmlns="http://www.w3.org/2000/svg" width="125" height="41" viewBox="0 0 125 41">
  <g fill="#FFF" fill-rule="evenodd" transform="translate(3 6)">
    <path d="M25.0706759,19.9169703 C25.4987517,21.5716931 25.5377935,22.9435941 25.5765585,22.9435941 L25.6543653,22.9435941 C25.6543653,22.9435941 25.7712139,21.5312079 26.1214829,19.9169703 L30.6749797,0.102217822 L35.8509309,0.102217822 L28.7289794,28.7547921 L22.930297,28.7547921 L18.6883042,11.8055842 C18.2214635,9.9490099 17.9877662,8.05252475 17.9877662,8.05252475 L17.9099595,8.05252475 C17.9099595,8.05252475 17.6762622,9.9490099 17.2094215,11.8055842 L12.9674287,28.7547921 L7.16874633,28.7547921 L0.241450243,0.102217822 L5.41767828,0.102217822 L9.77624283,19.9169703 C10.1265118,21.5312079 10.2433604,22.9435941 10.2433604,22.9435941 L10.3211672,22.9435941 C10.3599322,22.9435941 10.398974,21.5716931 10.8270498,19.9169703 L15.8083455,0.102217822 L20.1669101,0.102217822 L25.0706759,19.9169703"/>
    <polyline points="44.216 .102 60.755 .102 60.755 4.582 49.236 4.582 49.236 12.088 58.537 12.088 58.537 16.567 49.236 16.567 49.236 24.275 61.378 24.275 61.378 28.755 44.216 28.755 44.216 .102"/>
    <polyline points="70.484 .102 75.504 .102 75.504 24.275 87.451 24.275 87.451 28.755 70.484 28.755 70.484 .102"/>
    <polyline points="95.35 .102 100.37 .102 100.37 24.275 112.318 24.275 112.318 28.755 95.35 28.755 95.35 .102"/>
    <polyline points="113.902 .576 112.841 .576 112.841 .052 115.552 .052 115.552 .576 114.49 .576 114.49 3.407 113.902 3.407 113.902 .576"/>
    <path d="M116.223404,0.0516831683 L116.852504,0.0516831683 L117.486034,1.71013861 C117.558579,1.90883168 117.650231,2.2019901 117.650231,2.2019901 L117.659091,2.2019901 C117.659091,2.2019901 117.745759,1.90883168 117.818581,1.71013861 L118.451834,0.0516831683 L119.080934,0.0516831683 L119.340659,3.40678218 L118.757524,3.40678218 L118.620462,1.53068317 C118.607171,1.30873267 118.616309,1.0109802 118.616309,1.0109802 L118.607171,1.0109802 C118.607171,1.0109802 118.511366,1.33715842 118.43356,1.53068317 L117.909679,2.83022772 L117.394936,2.83022772 L116.875486,1.53068317 C116.797679,1.33715842 116.697444,1.00609901 116.697444,1.00609901 L116.688306,1.00609901 C116.688306,1.00609901 116.697444,1.30873267 116.683599,1.53068317 L116.547091,3.40678218 L115.958971,3.40678218 L116.223404,0.0516831683"/>
  </g>
</svg>
