<?xml version="1.0" standalone="no"?>
<!DOCTYPE svg PUBLIC "-//W3C//DTD SVG 1.1//EN" "http://www.w3.org/Graphics/SVG/1.1/DTD/svg11.dtd" >
<svg xmlns="http://www.w3.org/2000/svg">
<defs>
  <font id="Nucleo" horiz-adv-x="256">
    <font-face font-family="Nucleo"
      units-per-em="256" ascent="256"
      descent="0" />
    <missing-glyph horiz-adv-x="0" />
    <glyph glyph-name="pin-3"
      unicode="&#xEA02;"
      horiz-adv-x="256" d="M114.113 247.519C78.263 239.385 50.902 214.45 42.006 181.806C37.896 166.726 37.705 148.789 41.502 134.524C48.592 107.884 75.073 66.432 110.217 26.962C126.899 8.226 128.318 7 133.317 7C137.635 7 138.031 7.279 147.003 16.664C172.679 43.523 202.052 83.264 214.489 107.973C219.806 118.539 224.503 131.185 226.528 140.39C231.013 160.784 225.168 189.675 212.915 207.675C208.182 214.627 196.492 226.507 189.344 231.63C181.738 237.081 168.93 243.156 159 246.024C149.131 248.874 123.804 249.718 114.113 247.519M148.355 228.942C155.255 227.667 166.073 223.371 173.815 218.833C182.087 213.983 194.918 200.864 199.557 192.513C205.951 181 208.272 171.631 208.355 157C208.418 145.833 208.123 143.594 205.593 136C197.512 111.75 173.72 75.525 142.528 39.976L133.557 29.751L128.337 35.359C107.19 58.079 80.621 94.38 70.107 114.921C67.41 120.189 63.708 128.55 61.882 133.5C58.685 142.163 58.561 143.042 58.568 157C58.575 170.241 58.816 172.194 61.345 179.5C69.819 203.972 89.985 222.042 116 228.474C122.695 230.129 140.538 230.387 148.355 228.942M121.776 194.521C112.273 191.905 101.114 183.008 96.814 174.619C89.697 160.731 90.5 143.854 98.856 131.71C113.925 109.807 143.853 106.896 162.478 125.522C181.403 144.447 178.044 175.07 155.453 189.564C145.931 195.673 132.919 197.588 121.776 194.521M140 176.015C148.924 173.532 155.25 164.543 155.25 154.346C155.25 132.29 127.607 124.255 114.735 142.569C111.315 147.436 110.108 155.768 111.996 161.487C113.635 166.453 119.504 172.859 124.5 175.134C128.95 177.161 134.706 177.488 140 176.015" />
    <glyph glyph-name="wireframe"
      unicode="&#xEA03;"
      horiz-adv-x="256" d="M36.59 236.523C29.343 233.544 23.769 228.264 20.201 221L17.5 215.5L17.5 122.5L17.5 29.5L19.649 24.851C22.532 18.616 28.973 12.373 35.852 9.148L41.5 6.5L132.5 6.5C218.179 6.5 223.808 6.607 228.762 8.334C235.76 10.774 244.021 18.377 247.118 25.23L249.5 30.5L249.5 122.5L249.5 214.5L246.819 220.22C243.307 227.712 236.438 234.318 229.433 236.939C224.018 238.965 222.401 239 133.212 238.976L42.5 238.953L36.59 236.523M222.473 219.01C223.905 218.466 226.184 216.825 227.538 215.364C229.973 212.737 230 212.501 230 193.854L230 175L133 175L36 175L36.002 192.25C36.003 211.921 36.884 215.193 43 218.248C46.251 219.873 52.66 219.997 133.185 219.998C187.964 219.999 220.828 219.636 222.473 219.01M81 91L81 26L62.95 26C48.522 26 44.293 26.314 41.872 27.566C35.959 30.624 36 30.146 36 95.968L36 156L58.5 156L81 156L81 91M230 94.4L230 32.8L226.6 29.4L223.2 26L161.6 26L100 26L100 91L100 156L165 156L230 156L230 94.4" />
    <glyph glyph-name="check"
      unicode="&#xEA04;"
      horiz-adv-x="256" d="M24.419 248.925C22.724 248.433 20.474 247.076 19.419 245.91C17.553 243.849 17.492 240.489 17.222 124.145C17.069 58.34 17.19 3.488 17.491 2.25L18.038 0L133.05 0C241.646 0 248.103 0.098 248.781 1.75C249.177 2.713 249.5 57.295 249.5 123.044C249.5 257.077 250.093 246.769 242.259 248.945C237.539 250.256 28.936 250.237 24.419 248.925M230 122.5L230 15L133 15L36 15L36 122.5L36 230L133 230L230 230L230 122.5M141.858 134.326L112.076 104.651L103.562 112.826C95.824 120.254 94.685 121 91.079 121C85.276 121 81.545 117.513 81.545 112.088C81.545 108.131 82.08 107.43 94.755 94.755C107.336 82.174 108.156 81.545 111.999 81.545C115.968 81.545 116.603 82.114 150.431 115.931C169.349 134.843 184.987 151.258 185.183 152.408C186.27 158.806 182.014 164 175.684 164C171.719 164 171.06 163.422 141.858 134.326" />
    <glyph glyph-name="currency-exchange"
      unicode="&#xEA05;"
      horiz-adv-x="256" d="M42.798 247.069C26.938 241.998 13.874 228.894 8.907 213.072C7.441 208.401 6.837 203.752 6.82 197C6.78 181.215 11.94 169.652 23.824 158.898C31.448 151.998 39.012 148.228 49.298 146.202C63.871 143.331 78.03 146.82 90.699 156.403C108.288 169.709 115.307 193.263 108.006 214.483C105.237 222.53 100.914 228.938 93.828 235.499C83.332 245.217 73.188 249.031 58.068 248.946C51.693 248.91 46.597 248.284 42.798 247.069M173 238.347C170.514 237.404 135.913 202.685 134.89 200.106C133.004 195.352 135.507 191.868 153.886 173.668C171.025 156.696 171.885 156 175.728 156C182.314 156 186.938 162.173 184.785 168.091C184.303 169.416 180.001 174.437 175.225 179.25L166.542 188L193.271 188L220 188L220 159.077L220 130.153L222.589 127.077C227.018 121.813 235.203 123.248 237.901 129.76C238.745 131.798 238.996 142.285 238.789 166.883L238.5 201.166L235.234 204.083L231.968 207L199.842 207L167.715 207L176.204 215.806C181.021 220.803 184.908 225.741 185.191 227.221C185.751 230.149 184.077 234.862 181.808 236.744C180.006 238.24 175.08 239.136 173 238.347M72.5 227.118C86.252 220.516 93.603 206.355 90.93 191.616C89.437 183.379 87.067 179.176 80.569 173.237C64.553 158.599 39.213 163.173 29.25 182.5C27.363 186.161 26.55 189.543 26.215 195.127C25.65 204.548 27.583 211.028 33.007 217.889C39.684 226.337 47.335 229.888 59 229.955C65.264 229.991 67.489 229.524 72.5 227.118M31.913 119.718C28.196 116.864 28 114.837 28 79.202L28 44.273L30.507 41.766C31.885 40.388 34.698 38.981 36.757 38.641C38.815 38.3 53.766 38.017 69.979 38.011L99.458 38L90.502 29.002C82.26 20.722 81.545 19.689 81.545 16.058C81.545 10.302 84.936 7 90.845 7C95.341 7 95.347 7.005 113.671 25.258C138.256 49.748 138.255 46.132 113.693 70.693C95.85 88.536 95.282 89 91.249 89C85.274 89 81.545 85.581 81.545 80.104C81.545 76.269 82.14 75.399 90.502 66.998L99.458 58L73.272 58L47.087 58L46.793 87.088L46.5 116.176L43.694 118.588C40.598 121.25 34.651 121.82 31.913 119.718M193.5 98.11C184.562 95.507 179.729 92.653 172.144 85.497C161.199 75.172 156 63.267 156 48.529C156 33.056 160.442 22.338 171.391 11.394C182.668 0.121 183.056 0 208 0C226.937 0 229.469 0.199 232.908 1.953C238.595 4.854 247.836 13.704 252.176 20.405L256 26.31L255.991 47.905L255.981 69.5L253.088 74.544C249.517 80.77 238.548 91.182 232.138 94.43C221.098 100.024 205.254 101.533 193.5 98.11M221 78.313C227.692 75.323 235.34 67.925 238.094 61.779C241.365 54.479 241.468 41.648 238.311 34.783C235.257 28.143 227.903 20.653 221.714 17.878C214.312 14.56 201.688 14.56 194.286 17.878C188.062 20.668 180.679 28.211 177.799 34.722C173.586 44.245 174.635 57.761 180.224 65.969C183.747 71.143 191.418 77.1 197.23 79.175C203.936 81.569 214.579 81.183 221 78.313" />
    <glyph glyph-name="users-ww"
      unicode="&#xEA06;"
      horiz-adv-x="256" d="M164.928 226.952C147.874 222.908 140.911 215.013 147.497 207.186C151.17 202.821 153.961 202.52 161.241 205.705C166.43 207.975 168.953 208.446 176 208.462C186.159 208.484 190.917 206.637 198.614 199.681C205.127 193.795 207.858 187.548 209.079 175.741C210.574 161.29 214.006 152.094 222.412 140.015L226.896 133.572L224.198 131.781C219.978 128.98 211.362 126.025 201.54 124.011C189.889 121.621 188 119.737 188 110.509C188 102.604 189.123 99.525 193.738 94.775C196.728 91.698 201.157 89.533 219.179 82.338L241 73.627L241 54.814L241 36L222.689 36C205.48 36 204.242 35.874 202.127 33.904C197.517 29.609 197.336 23.913 201.68 19.829C204.111 17.544 204.606 17.494 228.05 17.2C243.882 17.001 252.628 17.266 253.972 17.985C255.947 19.042 256 19.939 256 52.38C256 89.66 256.5830000000001 86.715 248.384 90.836C246.119 91.973 237.347 95.667 228.889 99.044C220.431 102.421 213.134 105.417 212.672 105.702C212.211 105.987 215.134 107.326 219.167 108.678C233.419 113.454 245.435 122.009 248.629 129.655C250.552 134.256 249.929 135.831 242.458 145.279C234.165 155.768 230.031 164.292 228.847 173.343C225.888 195.982 223.541 201.687 212.749 212.472C204.896 220.322 198.759 223.971 189.284 226.426C182.833 228.098 170.852 228.357 164.928 226.952M73.977 214.775C58.323 209.316 46.526 197.516 41.042 181.832C40.017 178.9 38.725 171.936 38.171 166.359C36.841 152.976 33.447 145.777 21.812 131.663C16.295 124.97 15.906 122.542 19.396 116.588C23.631 109.363 34.953 101.998 48.651 97.556L55.392 95.37L36.946 88.053C15.84 79.681 12.294 77.616 8.926 71.736C6.557 67.599 6.5 66.978 6.5 45.168L6.5 22.836L9.766 19.918L13.032 17L89.969 17C147.489 17 167.568 17.302 169.528 18.195C174.442 20.434 175 23.143 174.994 44.7C174.991 55.59 174.512 66.217 173.929 68.315C171.891 75.655 167.147 78.933 146.927 86.972C136.792 91.001 128.105 94.648 127.623 95.076C127.14 95.504 128.715 96.38 131.123 97.023C142.848 100.155 157.936 109.566 162.052 116.317C165.47 121.924 164.691 125.343 158.137 133.49C147.866 146.257 143 157.021 143 166.971C143 184.902 130.7 203.591 113.186 212.272C104.742 216.457 104.531 216.503 92.577 216.775C82.142 217.012 79.613 216.74 73.977 214.775M104.849 195.108C116.182 189.245 122.38 179.433 123.552 165.5C124.637 152.596 129.76 139.34 138.197 127.6C139.739 125.455 141 123.298 141 122.807C141 121.079 128.494 116.028 119.051 113.942C113.798 112.782 108.418 111.308 107.095 110.666C98.909 106.696 101.379 87.994 110.926 81.655C112.892 80.349 123.838 75.553 135.25 70.995L156 62.709L156 49.354L156 36L90.972 36L25.944 36L26.222 49.585L26.5 63.17L48.5 72.013C67.485 79.645 70.947 81.371 73.759 84.606C77.747 89.193 79.352 94.747 78.757 101.912C78.147 109.269 75.846 111.128 64.616 113.335C55.922 115.043 45.103 118.867 41.703 121.433C40.022 122.701 40.254 123.325 45.316 131.144C53.512 143.807 57.965 157.003 57.992 168.712C58.016 178.688 67.733 191.782 78.173 195.908C85.469 198.791 98.484 198.401 104.849 195.108" />
    <glyph glyph-name="single-copy-04"
      unicode="&#xEA07;"
      horiz-adv-x="256" d="M56.419 248.925C49.237 246.84 47.044 238.502 52.295 233.25L55.045 230.5L142.504 230.224L229.964 229.947L230.232 126.496L230.5 23.045L233.25 20.295C237.088 16.458 242.912 16.458 246.75 20.295L249.5 23.045L249.5 132.817C249.5 255.896 250.069 246.776 242.259 248.945C237.553 250.252 60.923 250.233 56.419 248.925M20.766 204.082L17.5 201.164L17.22 102.832C17.067 48.749 17.188 3.488 17.489 2.25L18.038 0L112 0L205.962 0L206.511 2.25C206.812 3.488 206.933 48.749 206.78 102.832L206.5 201.164L203.234 204.082L199.968 207L112 207L24.032 207L20.766 204.082M188 101.5L188 15L112 15L36 15L36 101.5L36 188L112 188L188 188L188 101.5M68 153.156C64.441 152.222 62.462 150.825 61.146 148.316C58.03 142.378 61.686 135.81 68.757 134.641C70.815 134.3 90.275 134.022 112 134.022C133.725 134.022 153.185 134.3 155.243 134.641C162.294 135.806 165.784 141.99 162.929 148.257C160.532 153.518 160.805 153.488 114 153.656C90.075 153.742 69.375 153.517 68 153.156M65.5 109.839C59.62 106.606 58.342 100.124 62.589 95.077L65.178 92L111.666 92L158.154 92L161.077 94.923C165.85 99.696 164.559 106.69 158.316 109.883C155.285 111.433 68.324 111.392 65.5 109.839M63.077 65.411C57.8 60.971 59.249 52.796 65.794 50.085C67.816 49.248 75.663 48.985 92.255 49.197C115.378 49.494 115.892 49.546 118.32 51.829C122.664 55.913 122.483 61.609 117.873 65.904C115.714 67.915 114.618 68 90.888 68L66.153 68L63.077 65.411" />
    <glyph glyph-name="chart-pie-36"
      unicode="&#xEA08;"
      horiz-adv-x="256" d="M148.465 246.724L145.5 244.173L145.5 192.109L145.5 140.045L148.272 137.273L151.044 134.5L199.272 134.21C225.797 134.05 249.3 134.295 251.5 134.754L255.5 135.588L255.773 154.468C256.077 175.544 255.703 177.552 248.957 191C232.151 224.507 198.795 246.885 162.965 248.693C151.652 249.263 151.374 249.226 148.465 246.724M178.473 226.833C202.156 219.952 221.905 203.148 232.482 180.875C236.373 172.682 240 161.045 240 156.753L240 154L202 154L164 154L164 192.045L164 230.091L167.75 229.475C169.813 229.136 174.638 227.947 178.473 226.833M99.5 206.326C87.038 204.771 72.835 200.226 62 194.327C8.34 165.112 -9.548 97.01 22.776 45C31.827 30.438 48.859 15.104 64.996 6.99C78.75 0.073 79.241 0 112 0C138.347 0 142.296 0.209 147.098 1.862C161.661 6.872 176.327 16.462 187.962 28.581C205.091 46.423 214.601 67.101 216.899 91.5C217.961 102.776 216.724 107.378 212 109.727C210.123 110.66 198.589 110.974 165.75 110.985L122 111L121.998 154.25C121.997 193.428 121.832 197.828 120.248 200.986C119.287 202.903 117.375 205.034 116 205.721C113.648 206.897 106.246 207.168 99.5 206.326M102 145.125C102 122.094 102.28 101.85 102.622 100.139C102.964 98.428 104.376 95.897 105.759 94.514L108.273 92L153.073 92L197.874 92L197.359 88.25C195.919 77.769 190.449 63.529 184.308 54.277C158.136 14.844 105.016 3.397 65.628 28.702C48.568 39.663 36.715 55.002 29.852 75C26.715 84.14 26.59 85.106 26.546 100.5C26.506 114.232 26.82 117.605 28.758 124.291C35.316 146.917 49.91 165.5 70.008 176.817C77.943 181.284 94.038 186.665 100.25 186.926C101.89 186.995 102 184.367 102 145.125" />
    <glyph glyph-name="flash-21"
      unicode="&#xEA09;"
      horiz-adv-x="256" d="M138.48 226.217C136.81 224.798 44.093 123.171 31.75 109.23C26.898 103.749 26.635 99.211 30.923 94.923L33.846 92L77.923 92C114.064 92 122 91.759 122 90.662C122 89.926 119.975 75.228 117.5 58C115.025 40.772 113 26.029 113 25.238C113 22.85 119.57 17 122.252 17C123.601 17 126.136 18.013 127.885 19.25C133.622 23.307 237.797 138.799 238.465 141.842C239.223 145.291 237.95 148.851 235.011 151.5C232.875 153.426 231.164 153.511 188.896 153.799C147.402 154.081 145 154.196 145 155.898C145 156.888 146.8 170.209 149 185.5C154.213 221.734 154.21 223.806 148.928 226.537C145.194 228.468 140.977 228.339 138.48 226.217M127.006 167.542C123.694 144.646 123.486 141.211 125.282 139C128.969 134.459 128.402 134.525 168.539 134L206.773 133.5L172.137 95.305C153.086 74.298 137.361 57.503 137.191 57.983C137.021 58.463 138.271 68.5 139.969 80.287C143.315 103.51 143.23 105.101 138.44 108.869C135.781 110.96 135.005 111 97.339 111L58.947 111L94.223 149.839C113.626 171.2 129.615 188.597 129.756 188.499C129.897 188.401 128.659 178.971 127.006 167.542" />
    <glyph glyph-name="countdown-34"
      unicode="&#xEA0A;"
      horiz-adv-x="256" d="M127.913 247.718C124.437 245.049 124 242.314 124 223.202L124 204.273L126.636 201.636C130.313 197.96 136.647 197.932 140.076 201.577C142.341 203.986 142.522 205.004 142.831 217.139L143.161 230.124L148.831 229.418C165.474 227.344 185.91 218.46 200.5 206.955C223.938 188.474 238.929 159.319 240.684 128.806C243.633 77.544 210.295 31.783 160.119 18.218C151.532 15.896 148.676 15.617 133.5 15.617C118.186 15.617 115.508 15.884 106.5 18.31C72.839 27.372 45.773 51.173 33.455 82.542C29.518 92.568 26 108.254 26 115.782C26 123.179 25.037 126.69 22.241 129.486C17.584 134.143 9.49 132.099 7.068 125.654C6.011 122.839 7.528 103.872 9.5 95.257C13.963 75.757 21.32 60.255 33.586 44.5C48.955 24.761 68.543 10.76 91.779 2.906L100.375 0L133.512 0C165.902 0 166.81 0.054 173.736 2.41C211.664 15.31 240.656 44.238 253.498 81.994C255.971 89.264 256 89.743 256 122.749C256 155.964 255.986 156.189 253.429 163.824C252.014 168.046 248.59 175.841 245.819 181.147C227.292 216.617 194.473 240.676 155.29 247.509C144.924 249.316 130.142 249.429 127.913 247.718M61.775 199.454C58.353 197.581 57 195.09 57 190.665C57 184.7 102.289 110.728 111.782 101.187C120.334 92.592 132.152 89.798 143.572 93.671C150.633 96.066 160.067 105.661 162.464 112.884C166.321 124.512 162.628 137.757 153.218 146.04C143.607 154.499 72.987 199.236 67.5 200.341C65.661 200.711 63.445 200.368 61.775 199.454M120.779 145.287C143.056 130.64 145.443 128.257 144.614 121.501C144.253 118.558 143.186 116.642 140.576 114.251C134.144 108.356 127.745 110.283 120.657 120.249C115.943 126.877 95 160.538 95 161.486C95 162.198 96.306 161.377 120.779 145.287" />
    <glyph glyph-name="hotel"
      unicode="&#xEA0B;"
      horiz-adv-x="256" d="M56.419 248.925C54.724 248.433 52.474 247.076 51.419 245.911C49.574 243.872 49.49 241.244 49.229 177.395L48.958 111L31.729 110.985C12.497 110.969 10.502 110.47 7.752 104.986C6.159 101.812 6.003 97.191 6.002 53.315C6.001 24.423 6.39 4.103 6.975 2.565L7.95 0L131.975 0L256 0L256 54.465C256 107.289 255.942 108.961 254.066 109.965C252.95 110.562 244.926 111 235.093 111L218.055 111L217.778 176.795C217.466 250.553 217.854 246.836 210.259 248.945C205.565 250.248 60.912 250.23 56.419 248.925M198 122.5L198 15L170.5 15L143 15L143 21.55C143 31.584 139.94 36 132.989 36C130.849 36 128.914 35.068 126.923 33.077C124.207 30.361 124 29.618 124 22.577L124 15L96 15L68 15L68 122.5L68 230L133 230L198 230L198 122.5M96.775 205.493C91.126 202.32 90.269 195.577 94.923 190.923C97.718 188.128 98.238 188 106.787 188C115.113 188 115.908 188.181 118.364 190.636C122.244 194.517 122.259 200.055 118.4 204C116.239 206.21 115 206.53 107.728 206.762C101.796 206.95 98.74 206.596 96.775 205.493M150.421 205.581C144.534 203.018 143.56 195.349 148.495 190.414C150.693 188.216 151.723 188 160 188C168.277 188 169.307 188.216 171.505 190.414C176.541 195.451 175.467 203.071 169.36 205.623C165.194 207.364 154.461 207.34 150.421 205.581M94.923 161.077C92.932 159.086 92 157.151 92 155.011C92 147.822 96.35 145 107.435 145C114.268 145 115.244 145.256 117.931 147.75C122.273 151.78 122.448 157.279 118.364 161.364C115.908 163.819 115.113 164 106.787 164C98.238 164 97.718 163.872 94.923 161.077M148.495 161.586C143.694 156.785 144.478 149.356 150.091 146.453C153.806 144.532 166.194 144.532 169.909 146.453C175.522 149.356 176.306 156.785 171.505 161.586C169.307 163.784 168.277 164 160 164C151.723 164 150.693 163.784 148.495 161.586M94.636 118.364C89.316 113.043 92.419 104.166 100.139 102.622C110.13 100.624 118.244 102.946 120.549 108.464C121.837 111.545 121.843 112.44 120.598 115.42C118.616 120.164 116.459 121 106.202 121C97.888 121 97.091 120.818 94.636 118.364M147.589 117.923C144.136 113.82 144.242 109.879 147.918 105.766C150.811 102.528 150.914 102.5 160 102.5C169.086 102.5 169.189 102.528 172.082 105.766C175.758 109.879 175.864 113.82 172.411 117.923C169.844 120.974 169.74 121 160 121C150.26 121 150.156 120.974 147.589 117.923M49 53.5L49 15L37.5 15L26 15L26 53.5L26 92L37.5 92L49 92L49 53.5M241 53.5L241 15L229.5 15L218 15L218 53.5L218 92L229.5 92L241 92L241 53.5M96.775 77.493C91.126 74.32 90.269 67.577 94.923 62.923C97.718 60.128 98.238 60 106.787 60C115.113 60 115.908 60.181 118.364 62.636C122.244 66.517 122.259 72.055 118.4 76C116.239 78.21 115 78.53 107.728 78.762C101.796 78.95 98.74 78.596 96.775 77.493M150.421 77.581C144.534 75.018 143.56 67.349 148.495 62.414C150.693 60.216 151.723 60 160 60C168.277 60 169.307 60.216 171.505 62.414C176.541 67.451 175.467 75.071 169.36 77.623C165.194 79.364 154.461 79.34 150.421 77.581" />
    <glyph glyph-name="switches"
      unicode="&#xEA0C;"
      horiz-adv-x="256" d="M67 248.998C53.905 247.366 41.607 240.792 31.824 230.194C16.09 213.151 12.617 187.178 23.24 166C27.564 157.379 39.407 145.303 47.552 141.211C61.409 134.25 58.225 134.5 133 134.5C194.416 134.5 201.076 134.659 206.887 136.264C216.721 138.981 224.786 143.776 232.505 151.495C244.276 163.266 249.252 175.324 249.17 191.88C249.085 208.977 244.253 220.757 232.505 232.505C224.968 240.042 216.928 244.897 207.419 247.653C202.141 249.183 194.573 249.392 137.5 249.588C102.3 249.709 70.575 249.444 67 248.998M91.5 226.293C99.435 222.217 105.546 215.962 109.375 208C112.203 202.117 112.499 200.598 112.49 192C112.481 183.799 112.112 181.713 109.794 176.747C106.279 169.218 98.469 161.071 91.268 157.423C85.932 154.719 84.675 154.5 74.5 154.5C63.872 154.5 63.286 154.616 57.187 157.923C42.369 165.957 34.619 181.194 36.957 197.699C39.001 212.13 48.039 222.879 62.945 228.606C65.3 229.51 69.707 229.87 76 229.673C84.317 229.412 86.247 228.991 91.5 226.293M208.27 226.796C215.451 223.431 223.471 215.352 226.912 208.017C229.181 203.179 229.5 201.207 229.5 192C229.5 182.772 229.184 180.826 226.892 175.94C223.556 168.826 215.174 160.444 208.06 157.108L202.5 154.5L160.135 154.219L117.769 153.937L120.445 157.118C135.608 175.138 135.608 208.862 120.445 226.882L117.769 230.063L160.135 229.781L202.5 229.5L208.27 226.796M61.402 109.514C49.539 106.933 38.051 99.618 30.03 89.538C15.696 71.524 13.099 47.819 23.203 27.213C27.164 19.135 37.976 7.723 46 3.152L51.5 0.019L133.039 0.009C211.467 0 214.721 0.073 218.341 1.919C228.018 6.853 238.847 17.899 244.099 28.194C247.404 34.672 249.12 43.11 249.17 53.12C249.254 70.091 244.253 82.047 232.011 94.146C223.302 102.754 213.681 108.091 203.566 109.924C194.348 111.596 69.311 111.235 61.402 109.514M146.215 88.25C138.738 78.756 134.724 66.616 134.734 53.525C134.745 39.418 137.864 29.572 145.483 19.591L149.078 14.88L107.289 15.204C66.124 15.523 65.412 15.563 59.635 17.879C52.741 20.642 43.682 29.149 40.307 36.03C35.562 45.702 35.397 59.327 39.901 69.508C44.485 79.872 56.461 89.048 67.942 90.993C70.449 91.417 89.75 91.818 110.834 91.882L149.168 92L146.215 88.25M203.14 89.891C212.629 87.521 222.021 79.26 226.89 69C229.163 64.211 229.5 62.208 229.5 53.5C229.5 44.575 229.188 42.825 226.599 37.218C222.865 29.132 214.355 21.053 206.285 17.933C198.22 14.816 185.78 14.816 177.715 17.933C169.645 21.053 161.135 29.132 157.401 37.218C154.812 42.825 154.5 44.575 154.5 53.5C154.5 62.188 154.841 64.222 157.097 69C165.437 86.662 183.413 94.818 203.14 89.891" />
    <glyph glyph-name="letter"
      unicode="&#xEA0D;"
      horiz-adv-x="256" d="M25 225.441C14.547 220.578 8.876 213.132 7.049 201.871C5.495 192.297 5.701 165.651 7.359 161.683C8.586 158.746 14.626 155.209 69.62 125.215C108.527 103.996 131.534 92 133.323 92C135.111 92 157.803 103.818 196.062 124.675L256 157.35L256 185.495L256 213.64L252.609 217.602C250.744 219.781 246.806 222.899 243.859 224.532L238.5 227.5L134.5 227.75L30.5 228L25 225.441M235.033 207.483C240.285 204.767 241.085 201.686 240.777 185.367L240.5 170.738L193 144.822C166.875 130.568 142.772 117.406 139.437 115.574L133.374 112.243L79.937 141.393L26.5 170.544L26.224 185.789C25.922 202.458 26.287 203.985 31.314 207.05C34.412 208.939 37.234 208.993 133.3 208.996C219.661 209 232.469 208.809 235.033 207.483M9.521 118.612C8.207 117.298 6.841 114.668 6.484 112.767C6.128 110.866 5.985 94.054 6.168 75.406L6.5 41.5L9.151 35.845C12.281 29.17 18.279 23.027 24.807 19.812L29.5 17.5L133 17.5L236.5 17.5L241.714 19.858C244.63 21.176 248.931 24.357 251.474 27.076L256.021 31.937L255.76 76.218L255.5 120.5L251.366 120.802C248.139 121.037 246.603 120.563 244.366 118.64L241.5 116.176L241 79.691C240.525 45.001 240.402 43.098 238.502 41.001C233.778 35.785 238.293 36 133.615 36C71.714 36 35.18 36.361 33.527 36.99C32.095 37.534 29.816 39.175 28.462 40.636L26 43.292L25.994 76.896C25.989 112.057 25.512 116.828 21.739 119.471C18.338 121.853 12.34 121.431 9.521 118.612" />
    <glyph glyph-name="edit-76"
      unicode="&#xEA0E;"
      horiz-adv-x="256" d="M204.5 238.055C203.4 237.563 175.344 209.967 142.152 176.73L81.805 116.298L75.933 92.65C72.704 79.644 70.339 68.214 70.678 67.251C71.907 63.753 76.32 60 79.203 60C80.758 60 92.262 62.533 104.765 65.628L127.5 71.256L188.136 131.878C231.399 175.132 248.903 193.264 249.231 195.166C249.484 196.632 249.13 199.107 248.446 200.666C247.761 202.224 239.393 211.253 229.851 220.73C212.047 238.41 209.377 240.235 204.5 238.055M217.507 205.993L226.472 196.986L217.236 187.75L208 178.514L198.764 187.75L189.528 196.986L198.493 205.993C203.424 210.947 207.702 215 208 215C208.298 215 212.576 210.947 217.507 205.993M20.766 204.082L17.5 201.164L17.5 106.605L17.5 12.045L20.272 9.273L23.045 6.5L114.867 6.225C216.344 5.921 213.12 5.737 216.248 12C217.817 15.141 217.997 19.26 217.998 52.125C217.999 72.269 217.72 90.15 217.378 91.861C215.383 101.834 202.559 102.862 198.939 93.339C198.422 91.981 198 76.274 198 58.435L198 26L117 26L36 26L36 107L36 188L70.066 188C91.518 188 104.844 188.381 106.055 189.03C108.979 190.594 111.23 195.678 110.49 199.046C110.14 200.641 108.502 203.083 106.85 204.473L103.847 207L63.939 207L24.032 207L20.766 204.082M185.51 173.99L194.477 164.981L156.426 126.929L118.375 88.878L106.937 85.961C100.647 84.356 94.987 83.034 94.36 83.022C93.61 83.008 94.229 87.031 96.163 94.75L99.106 106.5L137.298 144.75C158.304 165.787 175.727 183 176.016 183C176.305 183 180.577 178.946 185.51 173.99" />
    <glyph glyph-name="archive-2"
      unicode="&#xEA0F;"
      horiz-adv-x="256" d="M87.5 248.492C85.3 247.688 83.422 247.023 83.328 247.015C83.233 247.007 82.65 245.47 82.033 243.601C80.62 239.32 81.47 235.846 84.665 232.845L87.161 230.5L132.874 230.5C174.18 230.5 178.837 230.664 181.177 232.197C186.451 235.652 186.502 244.314 181.268 247.745C178.833 249.341 174.65 249.521 135.046 249.727C98.922 249.915 90.818 249.704 87.5 248.492M53.15 204.473C51.498 203.083 49.86 200.641 49.51 199.046C48.77 195.678 51.021 190.594 53.945 189.03C55.217 188.349 82.262 188 133.798 188L211.727 188L214.252 190.524C215.64 191.913 216.991 194.171 217.253 195.542C217.881 198.83 215.133 204.156 212 205.721C210.067 206.687 192.113 206.974 132.827 206.985L56.153 207L53.15 204.473M19.901 160.894L17 157.788L17 80.476C17 37.954 17.273 2.452 17.607 1.582C18.156 0.152 29.257 0 133.048 0C223.817 0 248.052 0.262 248.691 1.25C249.628 2.697 250.399 148.428 249.502 154.662C249.134 157.221 247.908 159.82 246.316 161.412L243.727 164L133.265 164L22.802 164L19.901 160.894M230 80L230 15L133 15L36 15L36 80L36 145L133 145L230 145L230 80M84.766 108.082L81.5 105.164L81.5 90.605L81.5 76.045L84.272 73.273L87.043 70.5L130.796 70.202C180.001 69.867 181.252 70.003 184.248 76C186.746 80.999 186.746 100.002 184.248 104.999C182.041 109.417 177.872 111.539 173.734 110.353C168.87 108.958 166.621 104.979 166.168 96.968L165.774 90L132.887 90L100 90L99.978 97.25C99.954 104.922 98.746 107.617 94.316 109.883C90.805 111.678 88.252 111.197 84.766 108.082" />
    <glyph glyph-name="zoom"
      unicode="&#xEA10;"
      horiz-adv-x="256" d="M100.5 238.361C57.088 231.487 25.832 201.382 18.509 159.391C13.93 133.131 21.137 105.985 38.414 84.417C53.212 65.944 72.427 54.823 97.028 50.494C120.405 46.38 145.466 52.076 166.364 66.252L172.229 70.23L203.901 38.615C234.279 8.291 235.727 7 239.352 7C241.431 7 244.039 7.485 245.147 8.079C248.129 9.674 249.945 14.704 248.881 18.415C248.276 20.525 238.219 31.273 216.814 52.686L185.628 83.883L189.685 89.692C197.708 101.178 202.951 114.144 205.532 128.881C210.605 157.845 200.535 189.502 179.586 210.451C167.259 222.779 151.062 232.048 134.893 236.028C126.679 238.05 106.978 239.387 100.5 238.361M125.373 218.494C144.575 215.146 160.489 205.137 173.066 188.5C187.788 169.024 191.647 141.53 182.987 117.803C179.256 107.579 175.243 101.252 167.035 92.656C153.196 78.161 139.8 71.312 120.781 69.008C82.725 64.397 46.65 89.859 37.91 127.5C36.346 134.236 36.343 153.134 37.905 160.319C40.946 174.303 48.379 187.228 59.814 198.416C70.769 209.134 81.592 215.009 96 218.06C106.615 220.307 114.323 220.421 125.373 218.494" />
    <glyph glyph-name="setup-preferences"
      unicode="&#xEA11;"
      horiz-adv-x="256" d="M66.3 247.193C59.836 244.891 54.225 241.053 48.934 235.312C45.103 231.157 40.031 222.028 40.01 219.25C40.003 218.325 36.948 217.985 28.25 217.944C13.742 217.874 10.129 216.786 7.668 211.75C5.891 208.114 5.891 207.886 7.668 204.25C10.129 199.214 13.742 198.126 28.25 198.056C37.377 198.013 40 197.701 40 196.66C40 193.286 46.462 182.853 51.508 178.081C75.826 155.082 115.613 168.655 120.892 201.75C123.747 219.648 113.749 238.114 97 245.877C89.547 249.331 74.158 249.991 66.3 247.193M88.782 228.447C99.963 223.776 105.287 209.695 100.104 198.5C92.346 181.743 67.654 181.743 59.896 198.5C56.267 206.338 57.965 217.151 63.803 223.376C69.604 229.563 80.713 231.818 88.782 228.447M151.5 216.471C149.3 215.679 147.422 215.023 147.328 215.015C147.233 215.007 146.65 213.47 146.033 211.601C144.62 207.32 145.47 203.847 148.664 200.845L151.159 198.5L199.33 198.21C225.823 198.05 249.3 198.295 251.5 198.754L255.5 199.59L255.5 208.035L255.5 216.48L252.5 217.122C250.85 217.475 228.35 217.797 202.5 217.838C163.953 217.899 154.781 217.653 151.5 216.471M153.776 162.521C141.125 159.039 128.465 146.55 125.624 134.75L124.962 132L68.67 132C12.9 132 12.356 131.981 10.127 129.904C5.517 125.609 5.336 119.912 9.681 115.829L12.16 113.5L68.51 113.226L124.861 112.952L126.045 109.226C127.775 103.781 132.493 96.722 137.465 92.139C153.822 77.061 178.619 77.663 194.478 93.522C213.403 112.447 210.044 143.07 187.453 157.564C177.931 163.673 164.919 165.588 153.776 162.521M172 144.015C180.924 141.532 187.25 132.543 187.25 122.346C187.25 100.29 159.607 92.255 146.735 110.569C143.315 115.436 142.108 123.768 143.996 129.487C145.635 134.453 151.504 140.859 156.5 143.134C160.95 145.161 166.706 145.488 172 144.015M233.636 129.364C229.552 125.279 229.727 119.78 234.069 115.75C236.738 113.273 237.749 113.001 244.266 113.014C256.222 113.036 256 112.857 256 122.51C256 132.269 256.325 132 244.555 132C236.94 132 236.06 131.788 233.636 129.364M71.769 77.968C60.534 76.076 48.089 66.399 42.873 55.5C41.294 52.2 40.001 48.937 40.001 48.25C40 47.316 36.775 46.996 27.25 46.985C12.981 46.969 10.364 46.194 7.885 41.254C5.881 37.26 6.475 33.798 9.721 30.552C12.103 28.169 12.835 28.042 25.711 27.778L39.203 27.5L40.993 22.782C43.499 16.174 49.357 8.55 55.479 3.928L60.682 0L79.957 0L99.232 0L104.257 3.689C124.863 18.815 127.195 48.79 109.145 66.535C98.931 76.577 86.354 80.424 71.769 77.968M84.889 58.93C91.322 57.551 98.202 51.656 100.547 45.516C107.816 26.483 88.317 8.56 70.176 17.6C62.971 21.19 58.742 27.412 58.175 35.259C57.24 48.181 65.442 57.79 79.201 59.893C79.586 59.952 82.146 59.519 84.889 58.93M149.15 44.473C147.498 43.083 145.86 40.641 145.51 39.046C144.769 35.67 147.023 30.593 149.961 29.021C151.25 28.331 169.305 28.069 203.701 28.241L255.5 28.5L255.787 37.124C256.062 45.376 255.976 45.774 253.787 46.36C252.529 46.697 229.147 46.979 201.827 46.986L152.153 47L149.15 44.473" />
    <glyph glyph-name="support"
      unicode="&#xEA12;"
      horiz-adv-x="256" d="M110.922 247.448C57.838 237.835 16.613 195.687 7.927 142.148C6.352 132.439 6.648 110.941 8.5 100.504C15.071 63.471 37.952 31.343 71.416 12.16C76.319 9.348 83.969 5.578 88.416 3.782L96.5 0.515L131.349 0.209C164.982 -0.087 166.429 -0.021 172.849 2.099C210.172 14.421 240.9 44.971 253.644 82.425C255.932 89.151 256 90.305 256 122.51C256 153.423 255.859 156.104 253.912 162.085C239.699 205.744 200.733 239.584 155.615 247.452C144.68 249.359 121.462 249.357 110.922 247.448M159.5 227.187C168.778 224.568 173.203 222.9 181 219.082C187.993 215.659 201.184 206.948 201.694 205.417C201.866 204.903 195.029 197.516 186.501 189.001C171.634 174.157 170.904 173.579 168.748 174.931C163.111 178.465 154.588 182.121 148.812 183.482C141.317 185.249 126.22 185.449 118.799 183.879C113.449 182.747 103.817 178.641 98.746 175.33L95.992 173.532L80.496 189.004C71.973 197.513 65 204.805 65 205.206C65 206.229 74.421 213.016 81 216.733C89.042 221.276 101.303 225.913 111 228.077C122.541 230.654 148.939 230.169 159.5 227.187M66.863 175.637L82.202 160.274L78.173 152.887C72.63 142.726 70.727 134.793 70.759 121.994C70.782 113.304 71.249 110.108 73.466 103.494C74.94 99.097 77.463 93.356 79.073 90.735C80.683 88.114 82 85.634 82 85.223C82 83.623 51.161 53.783 50.152 54.406C48.045 55.708 38.17 71.633 35.21 78.5C27.89 95.484 25.526 108.31 26.234 127.215C27.079 149.804 32.562 165.995 45.717 184.75C48.128 188.187 50.421 191 50.813 191C51.204 191 58.427 184.087 66.863 175.637M220.217 186.119C225.43 179.137 232.381 165.742 235.373 156.914C243.666 132.444 242.475 104.816 232.047 79.769C229.019 72.495 217.657 54 216.217 54C215.835 54 208.491 61.021 199.897 69.603L184.272 85.205L188.116 91.853C199.164 110.955 198.505 139.151 186.618 156L184.149 159.5L199.813 175.25C208.428 183.912 215.723 191 216.025 191C216.326 191 218.213 188.804 220.217 186.119M147.2 164.103C162.326 158.899 173.536 145.591 176.278 129.586C178.595 116.061 174.069 102.308 163.907 91.986C157.131 85.104 149.561 81.216 140.244 79.834C125.889 77.703 112.948 81.892 102.926 91.914C94.44 100.4 90.728 108.649 90.173 120.256C89.499 134.36 92.714 142.711 102.905 153.328C111.825 162.62 119.506 165.827 133.093 165.933C139.074 165.98 143.363 165.423 147.2 164.103M113.338 62.984C117.389 61.576 123.102 60.654 130.015 60.291C143.065 59.606 154.091 62.057 164.146 67.879L170.795 71.728L186.397 56.103C194.979 47.509 202 40.2 202 39.86C202 38.668 185.205 27.968 178.887 25.134C149.017 11.739 115.936 11.689 88.159 24.998C80.064 28.877 66.524 37.343 65.333 39.271C65.009 39.794 71.824 47.311 80.476 55.976L96.207 71.73L101.691 68.427C104.708 66.61 109.949 64.161 113.338 62.984" />
    <glyph glyph-name="filter-check"
      unicode="&#xEA15;"
      horiz-adv-x="256" d="M10.127 225.904C5.517 221.608 5.336 215.912 9.682 211.829L12.161 209.5L132.124 209.238C214.272 209.059 252.704 209.306 254.043 210.023C255.731 210.926 256 212.152 256 218.928C256 225.171 255.675 226.911 254.418 227.393C253.548 227.727 198.733 228 132.607 228L12.377 228L10.127 225.904M10.127 161.904C5.517 157.608 5.336 151.912 9.682 147.829L12.161 145.5L132.124 145.238C214.272 145.059 252.704 145.306 254.043 146.023C255.731 146.926 256 148.152 256 154.928C256 161.171 255.675 162.911 254.418 163.393C253.548 163.727 198.733 164 132.607 164L12.377 164L10.127 161.904M10.127 97.904C5.517 93.608 5.336 87.912 9.682 83.829L12.161 81.5L58.663 81.5L105.164 81.5L108.082 84.766C111.886 89.024 111.892 92.834 108.099 96.894L105.198 100L58.787 100C13.051 100 12.344 99.97 10.127 97.904M205.839 70.306L176.038 40.613L162.125 54.306C149.025 67.2 147.983 68 144.295 68C138.207 68 133.583 62.633 134.688 56.852C134.996 55.239 141.923 47.564 153.575 35.925C171.35 18.17 172.112 17.545 176.005 17.545C179.966 17.545 180.618 18.129 214.431 51.931C233.349 70.843 248.987 87.258 249.183 88.408C250.27 94.806 246.014 100 239.684 100C235.719 100 235.06 99.422 205.839 70.306M10.127 33.904C5.517 29.608 5.336 23.912 9.682 19.829L12.161 17.5L58.663 17.5L105.164 17.5L108.082 20.766C111.886 25.024 111.892 28.834 108.099 32.894L105.198 36L58.787 36C13.051 36 12.344 35.97 10.127 33.904" />
    <glyph glyph-name="dashboard-30"
      unicode="&#xEA16;"
      horiz-adv-x="256" d="M116 248.344C100.993 246.041 83.459 240.187 71.334 233.431C56.555 225.198 39.624 209.926 29.67 195.85C6.986 163.774 0.541 120.029 13.013 82.801C25.694 44.952 55.308 15.32 93.402 2.363C100.158 0.066 101.273 0 133.616 0L166.881 0L174.19 2.62C212.066 16.198 240.997 45.257 253.644 82.425C255.932 89.151 256 90.305 256 122.51C256 153.423 255.859 156.104 253.912 162.085C247.942 180.422 237.191 197.794 223 212.031C198.266 236.847 168.157 249.167 133 248.856C125.025 248.785 117.375 248.555 116 248.344M154.843 228.028C191.794 220.483 222.328 193.74 234.798 158C256.112 96.914 219.028 31.154 155.5 17.383C151.65 16.548 143.55 15.625 137.5 15.331C83.296 12.695 34.862 52.822 26.952 106.919C25.07 119.787 26.194 139.383 29.446 150.39C35.326 170.294 43.871 185.002 57.434 198.566C73.676 214.808 94.903 225.587 118 229.323C125.759 230.578 145.806 229.873 154.843 228.028M128.775 205.441C124.758 203.261 124 201.052 124 191.52C124 183.75 124.236 182.673 126.414 180.495C129.569 177.34 133.313 176.473 137.067 178.028C141.361 179.806 143 183.666 143 192C143 200.496 141.302 204.35 136.881 205.892C132.861 207.293 132.111 207.251 128.775 205.441M74.656 183.867C73.642 183.278 72.174 181.267 71.393 179.398C70.169 176.47 70.168 175.551 71.384 172.75C72.161 170.963 80.239 162.107 89.337 153.072C103.194 139.31 105.723 136.352 104.919 134.848C102.872 131.025 102.053 123.079 103.107 117.272C104.887 107.462 110.792 99.62 120 94.837C126.435 91.495 140.511 91.48 146.791 94.809C152.274 97.714 158.286 103.726 161.191 109.209C164.52 115.489 164.505 129.565 161.163 136C158.19 141.723 153.737 146.376 148.009 149.744C142.337 153.079 128.729 154.161 123 151.732L119.5 150.249L101.937 167.624C85.117 184.265 84.207 184.999 80.437 184.97C78.272 184.953 75.67 184.457 74.656 183.867M175.828 178.172C168.014 170.359 167.187 167.308 171.497 162.186C176.304 156.473 181.002 157.116 188.981 164.579C195.188 170.385 196.765 174.585 194.517 179.323C193.63 181.193 191.779 183.235 190.405 183.861C185.241 186.214 182.992 185.337 175.828 178.172M139.783 132.439C146.908 127.449 146.373 116.312 138.82 112.407C130.975 108.35 122 113.797 122 122.616C122 126.496 122.522 127.722 125.4 130.6C128.231 133.431 129.533 134 133.177 134C135.585 134 138.558 133.298 139.783 132.439M52.495 129.586C49.34 126.431 48.473 122.687 50.028 118.933C51.806 114.639 55.666 113 64 113C72.334 113 76.194 114.639 77.972 118.933C79.527 122.687 78.66 126.431 75.505 129.586C73.307 131.784 72.277 132 64 132C55.723 132 54.693 131.784 52.495 129.586M190.923 129.077C188.932 127.086 188 125.151 188 123.011C188 115.822 192.35 113 203.435 113C210.268 113 211.244 113.256 213.931 115.75C218.273 119.78 218.448 125.279 214.364 129.364C211.908 131.819 211.113 132 202.787 132C194.238 132 193.718 131.872 190.923 129.077" />
    <glyph glyph-name="hotel-bell"
      unicode="&#xEA17;"
      horiz-adv-x="256" d="M87.5 248.492C85.3 247.688 83.422 247.023 83.328 247.015C83.233 247.007 82.65 245.47 82.033 243.601C80.621 239.32 81.47 235.847 84.664 232.845C87.063 230.59 87.866 230.487 105.579 230.155L124 229.809L124 218.484L124 207.159L121.25 206.633C119.737 206.344 116.475 205.819 114 205.466C100.136 203.493 82.083 197.06 68.923 189.403C43.518 174.623 22.907 149.159 13.153 120.5C8.347 106.38 6.942 96.031 6.363 70.5C5.887 49.544 6.003 47.189 7.67 44C8.895 41.657 10.657 40.106 13 39.306C15.637 38.407 45.22 38.128 133 38.175C197.075 38.209 250.85 38.525 252.5 38.878L255.5 39.519L255.776 76.51L256.052 113.5L253.413 121C249.855 131.117 244.339 142.211 238.437 151.123C232.464 160.143 217.908 175.406 209.054 181.933C192.77 193.938 171.012 202.995 152.5 205.474C142.193 206.854 143 205.745 143 218.527L143 229.838L160.797 230.169C175.465 230.442 179.05 230.798 181.181 232.197C186.451 235.655 186.5 244.315 181.268 247.745C178.833 249.341 174.65 249.521 135.046 249.727C98.922 249.915 90.818 249.704 87.5 248.492M153.287 185.909C173.52 182.377 195.707 170.333 210.544 154.828C232.028 132.376 241 108.38 241 73.369L241 58L133.5 58L26 58L26 74.369C26 92.207 27.453 103.157 31.325 114.5C44.725 153.754 80.037 182.339 120.867 186.984C129.368 187.951 144.455 187.45 153.287 185.909M81.357 145.684C71.497 138.425 62.651 127.124 56.896 114.432C54.099 108.263 50.022 93.597 50.007 89.65C49.995 86.588 56.35 81 59.844 81C64.978 81 67.829 84.486 70.068 93.5C73.835 108.671 82.697 123.068 92.684 130.24C100.494 135.849 102.111 142.043 97.077 147.077C92.732 151.422 88.662 151.062 81.357 145.684M12 13.727C8.386 11.93 5.679 5.975 6.953 2.625L7.95 0L131.975 0L256 0L256 6.883C256 13.176 255.807 13.818 253.75 14.37C252.513 14.701 198.175 14.972 133 14.972C40.557 14.971 13.95 14.697 12 13.727" />
    <glyph glyph-name="scale"
      unicode="&#xEA18;"
      horiz-adv-x="256" d="M64.23 226.449C63.012 225.596 49.533 207.483 34.276 186.199L6.537 147.5L6.772 141.093C7.625 117.877 22.196 99.091 43.693 93.492C50.455 91.73 64.728 91.542 72.201 93.116C92.764 97.446 108.266 116.095 110.567 139.273L111.186 145.5L98.498 175C91.519 191.225 85.413 205.513 84.929 206.75L84.05 209L104.025 209L124 209L124 117.549L124 26.099L90.25 25.799C53.026 25.469 51.912 25.294 49.985 19.453C48.618 15.313 49.502 11.817 52.665 8.845L55.161 6.5L132.874 6.5C204.275 6.5 210.798 6.638 213.177 8.197C218.451 11.652 218.502 20.313 213.269 23.745C210.875 25.315 207.024 25.532 176.796 25.799L143 26.099L143 117.549L143 209L162.908 209L182.816 209L169.333 177.75L155.85 146.5L156.32 139C157.426 121.368 168.126 104.588 183.149 96.924C196.554 90.085 220.894 90.491 234.361 97.777C240.995 101.366 248.924 109.193 252.833 116.01L255.981 121.5L255.991 137.247L256 152.995L230 189.462C215.699 209.52 203.129 226.396 202.065 226.965C200.788 227.649 177.443 228 133.288 228C74.511 228 66.178 227.813 64.23 226.449M85.779 154.445C85.514 154.181 74.038 154.085 60.276 154.233L35.253 154.5L51.256 176.86L67.259 199.221L76.759 177.073C81.984 164.892 86.043 154.709 85.779 154.445M215.947 176.193C224.346 164.474 231.012 154.678 230.758 154.425C230.505 154.172 219.049 154.085 205.301 154.233L180.303 154.5L189.827 176.775C195.065 189.026 199.649 198.701 200.013 198.275C200.377 197.849 207.547 187.912 215.947 176.193M90 132.96C90 131.038 86.015 124.086 82.839 120.469C78.674 115.725 73.675 113.296 65.203 111.896C52.927 109.869 39.921 113.632 33.882 120.959C31.399 123.971 27 131.981 27 133.489C27 133.77 41.175 134 58.5 134C79.638 134 90 133.658 90 132.96M238.909 131.261C236.015 123.65 229.938 117.201 222.5 113.849C218.442 112.021 215.71 111.596 208 111.596C200.29 111.596 197.558 112.021 193.5 113.849C186.062 117.201 179.985 123.65 177.091 131.261L176.05 134L208 134L239.95 134L238.909 131.261" />
    <glyph glyph-name="measure-big"
      unicode="&#xEA19;"
      horiz-adv-x="256" d="M10.127 225.904C8.89 224.751 7.455 222.697 6.939 221.339C5.646 217.938 5.681 5.969 6.975 2.565L7.95 0L122.908 0C237.413 0 237.868 0.008 238.507 2.022C240.412 8.025 242.124 6.189 129.149 119.25C20.671 227.809 20.473 228 16.429 228C13.697 228 11.644 227.317 10.127 225.904M116.5 105L206.496 15L116.248 15L26 15L26 26.368L26 37.737L33.682 38.23C40.752 38.684 41.588 38.974 44.182 41.877C47.755 45.876 47.831 49.86 44.411 53.923C41.922 56.881 41.517 57 33.911 57L26 57L26 69L26 81L32.55 81C40.307 81 44.234 82.736 45.972 86.933C47.527 90.687 46.66 94.431 43.505 97.586C41.379 99.711 40.189 100 33.545 100L26 100L26 112L26 124L33.545 124C40.189 124 41.379 124.289 43.505 126.414C46.678 129.587 47.525 133.318 45.941 137.142C44.292 141.122 39.834 143 32.032 143L26 143L26 169C26 183.3 26.113 195 26.252 195C26.391 195 67.002 154.5 116.5 105M65.5 109.839C60.044 106.839 60.046 106.854 60.022 74.386L60 44.273L62.507 41.766C63.885 40.388 66.698 38.981 68.757 38.641C73.625 37.836 118.375 37.836 123.243 38.641C130.592 39.856 133.971 46.388 130.566 52.8C129.011 55.729 78.08 106.683 74.027 109.364C71.177 111.25 68.351 111.407 65.5 109.839M89.5 68L99.462 58L89.231 58L79 58L79 68C79 73.5 79.121 78 79.269 78C79.417 78 84.021 73.5 89.5 68" />
    <glyph glyph-name="remove-part"
      unicode="&#xEA1A;"
      horiz-adv-x="256" d="M53.15 204.473C49.409 201.325 48.36 197.114 50.371 193.323C51.195 191.77 67.198 175.202 85.935 156.505L120 122.511L84.773 87.273C50.329 52.819 49.545 51.947 49.545 48.074C49.545 42.292 52.927 39 58.868 39L63.387 39L98.444 73.978L133.5 108.956L168.533 73.978C202.873 39.691 203.644 39 207.56 39C214.504 39 218.602 44.066 216.862 50.5C216.302 52.573 205.388 64.153 181.538 87.982L147.026 122.463L181.884 157.482C206.905 182.617 216.882 193.281 217.236 195.268C217.866 198.805 215.225 204.098 212 205.762C206.412 208.645 205.27 207.733 168.495 170.982L133.489 136L99.495 170.065C80.798 188.802 64.285 204.777 62.8 205.566C58.935 207.619 56.57 207.351 53.15 204.473" />
    <glyph glyph-name="tail-left"
      unicode="&#xEA1B;"
      horiz-adv-x="256" d="M96.5 205.102C94.85 204.063 76.287 185.938 55.25 164.826C17.873 127.315 17 126.35 17 122.496C17 118.638 17.857 117.696 56.776 78.776L96.553 39L101.102 39C107.074 39 110.455 42.279 110.455 48.073C110.455 51.933 109.684 52.804 79.998 82.502L49.542 112.971L146.691 113.235L243.839 113.5L246.318 115.829C250.664 119.912 250.483 125.609 245.873 129.904L243.623 132L146.568 132L49.513 132L79.151 161.75C95.452 178.113 109.317 192.539 109.961 193.809C111.633 197.102 110.339 201.537 106.85 204.473C103.269 207.486 100.546 207.652 96.5 205.102" />
    <glyph glyph-name="split"
      unicode="&#xEA1C;"
      horiz-adv-x="256" d="M149.15 204.473C145.658 201.534 144.366 197.099 146.044 193.809C146.692 192.539 150.874 187.788 155.339 183.25L163.456 175L136.305 175L109.153 175L106.327 172.59C104.772 171.265 90 154.408 73.5 135.131L43.5 100.081L27.939 100.041C13.552 100.003 12.207 99.842 10.127 97.904C5.517 93.609 5.336 87.912 9.682 83.829L12.161 81.5L114.244 81.236L216.327 80.972L208.199 72.645C203.729 68.065 199.65 63.211 199.136 61.858C196.83 55.793 201.362 49.545 208.069 49.545C211.867 49.545 212.764 50.284 230.478 67.978C249.872 87.351 251.348 89.519 248.651 94.677C247.839 96.23 239.321 105.262 229.721 114.75C213.058 131.218 212.087 132 208.322 132C202.235 132 197.379 126.382 198.691 120.857C198.998 119.561 203.347 114.338 208.355 109.25L217.46 100L143.158 100L68.855 100L71.178 102.909C72.455 104.509 83.175 117.091 95 130.869L116.5 155.919L139.893 155.959L163.285 156L154.755 147.152C145.347 137.392 143.846 134.132 146.447 129.103C148.429 125.27 151.141 123.799 155.505 124.192C158.444 124.457 161.529 127.085 177.462 142.896C201.919 167.167 201.812 163.511 178.75 186.763C157.296 208.396 155.26 209.614 149.15 204.473" />
    <glyph glyph-name="split-horizontal"
      unicode="&#xEA1D;"
      horiz-adv-x="256" d="M129.5 237.839C128.4 237.234 126.723 235.786 125.772 234.62C124.159 232.64 124.043 225.213 124.022 122.386L124 12.273L126.636 9.636C130.315 5.958 136.648 5.932 140.076 9.581L142.5 12.161L142.5 122.663L142.5 233.164L139.234 236.082C135.808 239.144 132.845 239.679 129.5 237.839M64.5 173.107C62.85 172.07 51.488 161.137 39.25 148.81C17.874 127.279 17 126.245 17 122.493C17 118.729 17.859 117.729 40.794 94.794L64.588 71L69.12 71C75.07 71 78.455 74.287 78.455 80.066C78.455 83.82 77.727 84.749 64.036 98.464L49.618 112.908L77.393 113.204L105.167 113.5L108.083 116.766C111.886 121.024 111.891 124.835 108.099 128.894L105.198 132L77.362 132L49.527 132L63.156 145.75C70.651 153.312 77.313 160.539 77.959 161.809C79.633 165.1 78.34 169.536 74.85 172.473C71.271 175.485 68.549 175.652 64.5 173.107M193.5 173.839C190.12 171.981 188.046 168.662 188.022 165.077C188.002 162.005 189.433 160.209 202 147.535C209.7 139.768 216 133.096 216 132.707C216 132.318 203.885 132 189.077 132L162.153 132L159.077 129.411C154.041 125.174 155.008 117.598 160.98 114.51C163.368 113.276 168.697 113 190.186 113L216.472 113L203.344 99.75C196.124 92.463 189.717 85.517 189.108 84.316C185.828 77.85 190.091 71 197.394 71C201.442 71 201.938 71.423 225.202 94.75C239.905 109.492 249.13 119.502 249.525 121.142C249.91 122.736 249.562 124.918 248.648 126.642C247.039 129.679 206.211 170.595 202.027 173.364C199.177 175.25 196.352 175.408 193.5 173.839" />
    <glyph glyph-name="chat-46-2"
      unicode="&#xEA1F;"
      horiz-adv-x="256" d="M197.3333333333333 250.6666666666667H16C10.1066666666667 250.6666666666667 5.3333333333333 245.8933333333334 5.3333333333333 240V112C5.3333333333333 106.1066666666667 10.1066666666667 101.3333333333333 16 101.3333333333333H48V53.3333333333333C48 51.3333333333333 49.1146666666667 49.504 50.8906666666667 48.5866666666667C52.64 47.6906666666667 54.7893333333333 47.8133333333333 56.432 48.992L129.7066666666667 101.3333333333333H197.3333333333333C203.2266666666667 101.3333333333333 208 106.1066666666667 208 112V240C208 245.8933333333334 203.2266666666666 250.6666666666667 197.3333333333333 250.6666666666667zM240 208H218.6666666666667V106.6666666666667C218.6666666666667 97.8293333333334 211.504 90.6666666666667 202.6666666666667 90.6666666666667H133.1253333333333L88.3253333333333 58.6666666666667H137.0506666666667L199.7066666666667 16.896C201.36 15.7973333333333 203.4666666666667 15.712 205.1786666666667 16.6293333333333C206.9173333333333 17.5573333333334 208 19.3653333333334 208 21.3333333333333V58.6666666666667H240C245.8933333333334 58.6666666666667 250.6666666666667 63.44 250.6666666666667 69.3333333333333V197.3333333333334C250.6666666666667 203.2266666666667 245.8933333333333 208 240 208z" />
    <glyph glyph-name="users-wm"
      unicode="&#xEA20;"
      horiz-adv-x="256" d="M236.624 88.8373333333333L194.4906666666667 104.1546666666667A5.333333333333333 5.333333333333333 0 0 0 191.024 108.4213333333333L188.864 123.5466666666667A48.128 48.128 0 0 1 213.3333333333333 165.3333333333334V196.9493333333334A28.645333333333337 28.645333333333337 0 0 1 188.1226666666667 225.3546666666667L183.4666666666667 234.6666666666667A9.824000000000002 9.824000000000002 0 0 1 171.5253333333333 239.4666666666667L142.7946666666667 229.2A39.76533333333333 39.76533333333333 0 0 1 122.1333333333333 210.624A60.666666666666664 60.666666666666664 0 0 0 144 163.872V154.6666666666667A87.41866666666665 87.41866666666665 0 0 1 157.3333333333334 115.5413333333334A16 16 0 0 0 151.1626666666667 92.3466666666667A38.98133333333333 38.98133333333333 0 0 0 145.8666666666667 90.288L153.216 88.0853333333334A31.81866666666666 31.81866666666666 0 0 0 176 57.4293333333334V32A15.81866666666667 15.81866666666667 0 0 0 175.0186666666667 26.6666666666667H245.3333333333333A5.333333333333333 5.333333333333333 0 0 1 250.6666666666667 32V68.8A21.386666666666663 21.386666666666663 0 0 1 236.624 88.8373333333333zM160 26.6666666666667H10.6666666666667A5.333333333333333 5.333333333333333 0 0 0 5.3333333333333 32V57.4293333333334A21.210666666666665 21.210666666666665 0 0 0 20.5386666666667 77.8666666666667L55.936 88.4853333333333A5.333333333333333 5.333333333333333 0 0 1 59.6693333333333 92.8373333333333L60.5333333333333 98.8373333333333C37.68 95.3653333333333 24.864 101.6053333333333 24.2666666666667 101.8933333333334A5.333333333333333 5.333333333333333 0 0 0 22.2133333333333 109.6266666666667A96.768 96.768 0 0 1 37.3333333333333 154.6666666666667V165.3333333333334A48 48 0 0 0 88.5333333333333 213.2266666666667A48.86400000000001 48.86400000000001 0 0 0 133.3333333333333 163.872V154.6666666666667A96.768 96.768 0 0 1 148.4373333333333 109.6266666666667A5.333333333333333 5.333333333333333 0 0 0 146.384 101.8933333333334C145.7973333333333 101.6053333333333 132.9813333333333 95.3706666666667 110.1173333333333 98.8373333333333L110.9813333333333 92.8373333333333A5.333333333333333 5.333333333333333 0 0 1 114.7146666666666 88.4853333333333L150.128 77.8666666666667A21.210666666666665 21.210666666666665 0 0 0 165.3333333333333 57.4293333333334V32A5.333333333333333 5.333333333333333 0 0 0 160 26.6666666666667z" />
    <glyph glyph-name="pin-copy"
      unicode="&#xEA21;"
      horiz-adv-x="256" d="M170.6666666666667 250.6666666666667C160.8586666666667 250.6666666666667 150.9706666666667 248.8 141.648 245.232C173.0186666666667 229.7653333333334 197.3333333333333 198.24 197.3333333333333 154.6666666666667C197.3333333333333 125.728 176.928 90.352 155.4613333333333 61.1306666666667C161.8346666666666 54.4266666666667 166.272 50.1546666666667 166.9866666666666 49.472C168.016 48.4906666666667 169.3386666666667 48 170.6666666666667 48S173.3173333333333 48.4906666666667 174.3466666666667 49.472C177.4613333333333 52.448 250.6666666666667 122.8533333333334 250.6666666666667 170.6666666666667C250.6666666666667 220.7413333333333 209.9946666666667 250.6666666666667 170.6666666666667 250.6666666666667zM96 245.3333333333334C51.4346666666667 245.3333333333334 5.3333333333333 211.4186666666667 5.3333333333333 154.6666666666667C5.3333333333333 100.4266666666667 88.6666666666667 15.8186666666667 92.2133333333333 12.24C93.216 11.232 94.576 10.6666666666667 96 10.6666666666667S98.784 11.232 99.7866666666667 12.24C103.3333333333333 15.8186666666667 186.6666666666667 100.4266666666667 186.6666666666667 154.6666666666667C186.6666666666667 211.4186666666667 140.5653333333334 245.3333333333334 96 245.3333333333334zM96 122.6666666666667C78.3253333333333 122.6666666666667 64 136.992 64 154.6666666666667S78.3253333333333 186.6666666666667 96 186.6666666666667S128 172.3413333333334 128 154.6666666666667S113.6746666666667 122.6666666666667 96 122.6666666666667z" />
  </font>
</defs>
</svg>
