<svg xmlns="http://www.w3.org/2000/svg" width="30" height="31" viewBox="0 0 30 31">
  <g fill="none">
    <path fill="#C64A4A" d="M22.46191,7.63818 C20.08789,4.07861 15.72168,1.27441 15.53711,1.15673 L15,0.81445 L14.46289,1.15674 C14.27832,1.27442 9.91211,4.07862 7.53809,7.63819 L7.12012,8.26514 L15,17.54492 L22.87988,8.26513 L22.46191,7.63818 Z"/>
    <path fill="#E86C60" d="M15,31 C6.72852,31 0,24.271 0,16 L0,4.93311 L1.06445,5.00196 C8.41504,5.47852 13.17773,10.19189 15,12.36475 C16.82227,10.1919 21.58496,5.47852 28.93555,5.00196 L30,4.93311 L30,16 C30,24.271 23.27148,31 15,31 Z"/>
  </g>
</svg>
