<svg xmlns="http://www.w3.org/2000/svg" width="30" height="31" viewBox="0 0 30 31">
  <g fill="#FFF">
    <path d="M22.46191,7.63818 C20.08789,4.07861 15.72168,1.27441 15.53711,1.15673 L15,0.81445 L14.46289,1.15674 C14.27832,1.27442 9.91211,4.07862 7.53809,7.63819 L7.12012,8.26514 L15,17.54492 L22.87988,8.26513 L22.46191,7.63818 Z"/>
    <path stroke="#D0021B" d="M29.5,5.46649547 L28.9678985,5.50091248 C23.1853564,5.8758114 18.6238244,8.82185532 15.3831062,12.6860437 L14.9999991,13.1428554 L14.6168931,12.6860428 C11.3761983,8.82186456 6.81464865,5.87581173 1.03217679,5.50091735 L0.5,5.46649547 L0.5,16 C0.5,23.9950258 7.00483052,30.5 15,30.5 C22.9951695,30.5 29.5,23.9950258 29.5,16 L29.5,5.46649547 Z"/>
  </g>
</svg>
