<svg xmlns="http://www.w3.org/2000/svg" width="100" height="71" viewBox="0 0 100 71">
  <g fill="#FFF">
    <path d="M99.375,49.5833333 C99.375,49.5833333 99.375,49.5833333 99.375,49.5833333 C99.375,49.375 99.375,49.1666667 99.375,48.9583333 L99.375,22.0833333 C99.375,21.875 99.375,21.6666667 99.375,21.4583333 C99.375,21.4583333 99.375,21.4583333 99.375,21.25 C99.375,21.0416667 99.375,20.8333333 99.375,20.8333333 C99.375,20.8333333 99.375,20.8333333 99.375,20.8333333 C99.375,19.7916667 98.9583333,18.9583333 98.75,17.9166667 C98.75,17.9166667 98.75,17.9166667 98.75,17.9166667 C98.75,17.7083333 98.75,17.7083333 98.5416667,17.5 C98.5416667,17.5 98.5416667,17.2916667 98.3333333,17.2916667 C98.3333333,17.2916667 98.3333333,17.2916667 98.3333333,17.2916667 C97.7083333,16.0416667 96.875,14.7916667 95.625,13.9583333 C94.5833333,13.125 93.3333333,12.2916667 91.4583333,11.875 C91.4583333,11.875 91.4583333,11.875 91.4583333,11.875 L72.0833333,1.875 C71.6666667,1.66666667 71.0416667,1.25 70.625,1.04166667 C70.625,1.04166667 70.625,1.04166667 70.4166667,1.04166667 C67.9166667,2.77555756e-15 65,2.77555756e-15 61.6666667,0.625 L11.6666667,11.25 C11.6666667,11.25 11.4583333,11.25 11.4583333,11.25 C4.16666667,13.9583333 0.833333333,18.3333333 0.833333333,24.7916667 L0.833333333,49.1666667 C0.833333333,54.1666667 3.125,57.5 7.08333333,58.9583333 L27.7083333,69.375 C27.7083333,69.375 27.7083333,69.375 27.7083333,69.375 C27.9166667,69.375 27.9166667,69.5833333 28.125,69.5833333 C28.125,69.5833333 28.3333333,69.5833333 28.3333333,69.7916667 C28.5416667,69.7916667 28.5416667,70 28.75,70 C28.75,70 28.9583333,70 29.1666667,70.2083333 C29.1666667,70.2083333 29.375,70.2083333 29.375,70.2083333 C29.5833333,70.2083333 29.7916667,70.4166667 30,70.4166667 C30,70.4166667 30,70.4166667 30.2083333,70.4166667 C30.4166667,70.4166667 30.4166667,70.4166667 30.625,70.625 C30.625,70.625 30.625,70.625 30.625,70.625 C30.8333333,70.625 31.25,70.8333333 31.4583333,70.8333333 C31.4583333,70.8333333 31.4583333,70.8333333 31.6666667,70.8333333 C31.875,70.8333333 32.0833333,70.8333333 32.2916667,70.8333333 C32.2916667,70.8333333 32.5,70.8333333 32.5,70.8333333 C32.7083333,70.8333333 32.7083333,70.8333333 32.9166667,70.8333333 C33.125,70.8333333 33.125,70.8333333 33.3333333,70.8333333 C33.3333333,70.8333333 33.5416667,70.8333333 33.5416667,70.8333333 C34.1666667,70.8333333 34.7916667,70.8333333 35.625,70.625 C35.625,70.625 35.625,70.625 35.625,70.625 L88.5416667,60.2083333 C88.5416667,60.2083333 88.5416667,60.2083333 88.5416667,60.2083333 C90.2083333,59.7916667 91.6666667,59.1666667 93.125,58.3333333 C93.125,58.3333333 93.125,58.3333333 93.3333333,58.3333333 C93.3333333,58.3333333 93.5416667,58.3333333 93.5416667,58.125 C93.5416667,58.125 93.75,57.9166667 93.75,57.9166667 C93.75,57.9166667 93.75,57.9166667 93.75,57.9166667 C94.375,57.5 95,57.0833333 95.625,56.6666667 C97.7083333,54.7916667 98.9583333,52.7083333 99.375,50.2083333 C99.375,50.2083333 99.375,50.2083333 99.375,50.2083333 C99.1666667,50 99.375,49.7916667 99.375,49.5833333 Z M87.9166667,57.7083333 L52.7083333,64.5833333 L35.2083333,68.125 C35,68.125 34.5833333,68.125 34.375,68.125 C34.375,68.125 34.1666667,68.125 34.1666667,68.125 C33.9583333,68.125 33.75,68.125 33.5416667,68.125 C33.5416667,68.125 33.3333333,68.125 33.3333333,68.125 C33.125,68.125 32.9166667,68.125 32.7083333,68.125 C32.5,68.125 32.5,68.125 32.2916667,68.125 C32.0833333,68.125 32.0833333,68.125 31.875,68.125 C31.6666667,68.125 31.6666667,68.125 31.4583333,68.125 C31.25,68.125 31.25,68.125 31.0416667,68.125 C30.8333333,68.125 30.8333333,68.125 30.8333333,68.125 C30.625,68.125 30.4166667,68.125 30.4166667,67.9166667 C30.4166667,67.9166667 30.2083333,67.9166667 30.2083333,67.9166667 C30,67.9166667 30,67.7083333 29.7916667,67.7083333 C29.7916667,67.7083333 29.5833333,67.7083333 29.5833333,67.7083333 C29.375,67.7083333 29.1666667,67.5 29.1666667,67.5 C28.9583333,67.2916667 28.5416667,67.0833333 28.3333333,66.875 C26.875,65.625 26.0416667,63.5416667 26.0416667,60.8333333 L26.0416667,36.0416667 C26.0416667,32.5 27.0833333,27.9166667 35,24.7916667 L84.7916667,14.1666667 C87.0833333,13.75 88.9583333,13.75 90.625,14.1666667 C90.625,14.1666667 90.625,14.1666667 90.625,14.1666667 C90.625,14.1666667 90.625,14.1666667 90.625,14.1666667 C90.8333333,14.1666667 90.8333333,14.1666667 91.0416667,14.1666667 C91.0416667,14.1666667 91.25,14.1666667 91.25,14.1666667 C91.25,14.1666667 91.4583333,14.1666667 91.4583333,14.1666667 C91.4583333,14.1666667 91.6666667,14.1666667 91.6666667,14.1666667 C91.6666667,14.1666667 91.6666667,14.1666667 91.6666667,14.1666667 C94.7916667,15.4166667 96.25,17.9166667 96.4583333,20.625 C96.4583333,20.625 96.4583333,20.625 96.4583333,20.625 C96.4583333,20.8333333 96.4583333,20.8333333 96.4583333,21.0416667 C96.4583333,21.0416667 96.4583333,21.25 96.4583333,21.25 C96.4583333,21.25 96.4583333,21.25 96.4583333,21.4583333 C96.4583333,21.6666667 96.4583333,21.6666667 96.4583333,21.875 L96.4583333,48.75 C96.4583333,49.1666667 96.4583333,49.5833333 96.25,50 C95.8333333,54.1666667 91.875,56.6666667 87.9166667,57.7083333 Z M7.70833333,56.4583333 C4.79166667,55.4166667 3.125,52.9166667 3.125,48.9583333 L3.125,24.5833333 C3.125,19.1666667 5.83333333,15.8333333 12.0833333,13.3333333 L61.875,2.70833333 C64.7916667,2.08333333 67.2916667,2.29166667 69.1666667,3.125 C69.1666667,3.125 69.1666667,3.125 69.1666667,3.125 C69.5833333,3.33333333 70,3.54166667 70.4166667,3.75 C70.4166667,3.75 70.4166667,3.75 70.4166667,3.75 L85,11.25 C84.5833333,11.25 84.1666667,11.4583333 83.75,11.4583333 L33.75,22.0833333 C33.75,22.0833333 33.5416667,22.0833333 33.5416667,22.0833333 C26.25,24.7916667 22.9166667,29.1666667 22.9166667,35.625 L22.9166667,60.4166667 C22.9166667,61.875 23.125,63.3333333 23.5416667,64.5833333 L7.70833333,56.4583333 C7.91666667,56.4583333 7.91666667,56.4583333 7.70833333,56.4583333 Z"/>
    <path d="M21.6666667 24.1666667L10.8333333 19.375C10.2083333 19.1666667 9.375 19.375 9.16666667 20 8.95833333 20.625 9.16666667 21.4583333 9.79166667 21.6666667L20.625 26.4583333C20.8333333 26.4583333 21.0416667 26.6666667 21.0416667 26.6666667 21.4583333 26.6666667 22.0833333 26.4583333 22.2916667 25.8333333 22.5 25.2083333 22.2916667 24.375 21.6666667 24.1666667zM17.5 51.25L14.1666667 49.5833333 14.1666667 32.2916667C14.1666667 31.6666667 13.5416667 31.0416667 12.9166667 31.0416667 12.2916667 31.0416667 11.6666667 31.6666667 11.6666667 32.2916667L11.6666667 48.3333333 10.625 47.9166667C10.2083333 47.7083333 9.79166667 47.7083333 9.58333333 47.9166667L6.875 49.375C6.45833333 49.5833333 6.25 50 6.25 50.625 6.25 51.0416667 6.45833333 51.4583333 7.08333333 51.6666667L13.9583333 54.7916667C14.1666667 54.7916667 14.375 55 14.5833333 55 14.7916667 55 15 55 15.2083333 54.7916667L17.7083333 53.5416667C18.125 53.3333333 18.5416667 52.9166667 18.5416667 52.5 18.125 51.875 17.9166667 51.4583333 17.5 51.25zM29.5833333 15.2083333C29.7916667 15.2083333 29.7916667 15.2083333 30 15.2083333L60.8333333 8.75C61.6666667 8.54166667 62.2916667 7.70833333 62.0833333 6.66666667 61.875 5.83333333 61.0416667 5.20833333 60 5.41666667L29.1666667 11.875C28.3333333 12.0833333 27.7083333 12.9166667 27.9166667 13.9583333 28.125 14.7916667 28.9583333 15.2083333 29.5833333 15.2083333zM36.25 17.9166667C36.4583333 18.75 37.0833333 19.1666667 37.9166667 19.1666667 38.125 19.1666667 38.125 19.1666667 38.3333333 19.1666667L69.1666667 12.7083333C70 12.5 70.625 11.6666667 70.4166667 10.625 70.2083333 9.79166667 69.375 9.16666667 68.3333333 9.375L37.5 15.8333333C36.6666667 16.0416667 36.0416667 16.875 36.25 17.9166667z"/>
  </g>
</svg>
