<svg xmlns="http://www.w3.org/2000/svg" width="137" height="75" viewBox="0 0 137 75">
  <g fill="#FFF" fill-rule="evenodd" transform="translate(12 16)">
    <text font-family="MuseoSans-900, Museo Sans" font-size="36.2" font-weight="bold">
      <tspan x="7.249" y="34">WELL</tspan>
    </text>
    <polyline points="104.242 4.746 102.144 4.746 102.144 4.284 106.904 4.284 106.904 4.746 104.814 4.746 104.814 9.52 104.242 9.52 104.242 4.746"/>
    <path d="M108.239663,4.284 L108.734274,4.284 L109.995495,7.36015972 C110.106442,7.6282939 110.228842,7.99979575 110.228842,7.99979575 L110.243158,7.99979575 C110.243158,7.99979575 110.373432,7.6282939 110.482947,7.36015972 L111.7456,4.284 L112.231621,4.284 L112.616,9.52 L112.142863,9.52 L111.875158,5.85549948 C111.855116,5.57337569 111.862274,5.12570818 111.862274,5.12570818 L111.847958,5.12570818 C111.847958,5.12570818 111.704084,5.5873653 111.594568,5.85549948 L110.462905,8.54461333 L110.016968,8.54461333 L108.884589,5.85549948 C108.775074,5.5951373 108.624042,5.11094137 108.624042,5.11094137 L108.610442,5.11094137 C108.610442,5.11094137 108.616884,5.57337569 108.596842,5.85549948 L108.329137,9.52 L107.856,9.52 L108.239663,4.284"/>
  </g>
</svg>
